HIERARCHY
ROOT hip
{
  OFFSET 0 0 0
  CHANNELS 6 Xposition Yposition Zposition Zrotation Yrotation Xrotation
  JOINT abdomen
  {
    OFFSET 0 20.6881 -0.73152
    CHANNELS 3 Zrotation Xrotation Yrotation
    JOINT chest
    {
      OFFSET 0 11.7043 -0.48768
      CHANNELS 3 Zrotation Xrotation Yrotation
      JOINT neck
      {
        OFFSET 0 22.1894 -2.19456
        CHANNELS 3 Zrotation Xrotation Yrotation
        JOINT head
        {
          OFFSET -0.24384 7.07133 1.2192
          CHANNELS 3 Zrotation Xrotation Yrotation
          JOINT leftEye
          {
            OFFSET 4.14528 8.04674 8.04672
            CHANNELS 3 Zrotation Xrotation Yrotation
            End Site
            {
              OFFSET 1 0 0
            }
          }
          JOINT rightEye
          {
            OFFSET -3.6576 8.04674 8.04672
            CHANNELS 3 Zrotation Xrotation Yrotation
            End Site
            {
              OFFSET 1 0 0
            }
          }
        }
      }
      JOINT rCollar
      {
        OFFSET -2.68224 19.2634 -4.8768
        CHANNELS 3 Zrotation Xrotation Yrotation
        JOINT rShldr
        {
          OFFSET -8.77824 -1.95073 1.46304
          CHANNELS 3 Zrotation Xrotation Yrotation
          JOINT rForeArm
          {
            OFFSET -28.1742 -1.7115 0.48768
            CHANNELS 3 Zrotation Xrotation Yrotation
            JOINT rHand
            {
              OFFSET -22.5879 0.773209 7.07136
              CHANNELS 3 Zrotation Xrotation Yrotation
              JOINT rThumb1
              {
                OFFSET -1.2192 -0.487915 3.41376
                CHANNELS 3 Zrotation Xrotation Yrotation
                JOINT rThumb2
                {
                  OFFSET -3.37035 -0.52449 3.41376
                  CHANNELS 3 Zrotation Xrotation Yrotation
                  End Site
                  {
                    OFFSET -1.78271 -1.18214 1.43049
                  }
                }
              }
              JOINT rIndex1
              {
                OFFSET -7.75947 0.938293 5.60832
                CHANNELS 3 Zrotation Xrotation Yrotation
                JOINT rIndex2
                {
                  OFFSET -2.54057 -0.884171 1.56538
                  CHANNELS 3 Zrotation Xrotation Yrotation
                  End Site
                  {
                    OFFSET -1.62519 -0.234802 1.16502
                  }
                }
              }
              JOINT rMid1
              {
                OFFSET -8.24714 1.18213 3.41376
                CHANNELS 3 Zrotation Xrotation Yrotation
                JOINT rMid2
                {
                  OFFSET -3.10165 -0.590103 1.0647
                  CHANNELS 3 Zrotation Xrotation Yrotation
                  End Site
                  {
                    OFFSET -2.48547 -0.328903 0.83742
                  }
                }
              }
              JOINT rRing1
              {
                OFFSET -8.82822 0.546677 1.51678
                CHANNELS 3 Zrotation Xrotation Yrotation
                JOINT rRing2
                {
                  OFFSET -2.60934 -0.819778 -0.0198488
                  CHANNELS 3 Zrotation Xrotation Yrotation
                  End Site
                  {
                    OFFSET -2.33842 -0.294052 0.168128
                  }
                }
              }
              JOINT rPinky1
              {
                OFFSET -8.27202 -0.0477905 -0.4584
                CHANNELS 3 Zrotation Xrotation Yrotation
                JOINT rPinky2
                {
                  OFFSET -1.82734 -0.647385 -0.700984
                  CHANNELS 3 Zrotation Xrotation Yrotation
                  End Site
                  {
                    OFFSET -1.69225 -0.51767 -0.607171
                  }
                }
              }
            }
          }
        }
      }
      JOINT lCollar
      {
        OFFSET 2.68224 19.2634 -4.8768
        CHANNELS 3 Zrotation Xrotation Yrotation
        JOINT lShldr
        {
          OFFSET 8.77824 -1.95073 1.46304
          CHANNELS 3 Zrotation Xrotation Yrotation
          JOINT lForeArm
          {
            OFFSET 28.1742 -1.7115 0.48768
            CHANNELS 3 Zrotation Xrotation Yrotation
            JOINT lHand
            {
              OFFSET 22.5879 0.773209 7.07136
              CHANNELS 3 Zrotation Xrotation Yrotation
              JOINT lThumb1
              {
                OFFSET 1.2192 -0.487915 3.41376
                CHANNELS 3 Zrotation Xrotation Yrotation
                JOINT lThumb2
                {
                  OFFSET 3.37035 -0.52449 3.41376
                  CHANNELS 3 Zrotation Xrotation Yrotation
                  End Site
                  {
                    OFFSET 1.78271 -1.18214 1.43049
                  }
                }
              }
              JOINT lIndex1
              {
                OFFSET 7.75947 0.938293 5.60832
                CHANNELS 3 Zrotation Xrotation Yrotation
                JOINT lIndex2
                {
                  OFFSET 2.54057 -0.884171 1.56538
                  CHANNELS 3 Zrotation Xrotation Yrotation
                  End Site
                  {
                    OFFSET 1.62519 -0.234802 1.16502
                  }
                }
              }
              JOINT lMid1
              {
                OFFSET 8.24714 1.18213 3.41376
                CHANNELS 3 Zrotation Xrotation Yrotation
                JOINT lMid2
                {
                  OFFSET 3.10165 -0.590103 1.0647
                  CHANNELS 3 Zrotation Xrotation Yrotation
                  End Site
                  {
                    OFFSET 2.48547 -0.328903 0.83742
                  }
                }
              }
              JOINT lRing1
              {
                OFFSET 8.82822 0.546677 1.51678
                CHANNELS 3 Zrotation Xrotation Yrotation
                JOINT lRing2
                {
                  OFFSET 2.60934 -0.819778 -0.0198488
                  CHANNELS 3 Zrotation Xrotation Yrotation
                  End Site
                  {
                    OFFSET 2.33842 -0.294052 0.168128
                  }
                }
              }
              JOINT lPinky1
              {
                OFFSET 8.27202 -0.0477905 -0.4584
                CHANNELS 3 Zrotation Xrotation Yrotation
                JOINT lPinky2
                {
                  OFFSET 1.82734 -0.647385 -0.700984
                  CHANNELS 3 Zrotation Xrotation Yrotation
                  End Site
                  {
                    OFFSET 1.69225 -0.51767 -0.607171
                  }
                }
              }
            }
          }
        }
      }
    }
  }
  JOINT rButtock
  {
    OFFSET -8.77824 4.35084 1.2192
    CHANNELS 3 Zrotation Xrotation Yrotation
    JOINT rThigh
    {
      OFFSET 0 -1.70687 -2.19456
      CHANNELS 3 Zrotation Xrotation Yrotation
      JOINT rShin
      {
        OFFSET 0 -36.8199 0.73152
        CHANNELS 3 Zrotation Xrotation Yrotation
        JOINT rFoot
        {
          OFFSET 0.73152 -45.1104 -5.12064
          CHANNELS 3 Zrotation Xrotation Yrotation
          End Site
          {
            OFFSET -1.1221 -3.69964 12.103
          }
        }
      }
    }
  }
  JOINT lButtock
  {
    OFFSET 8.77824 4.35084 1.2192
    CHANNELS 3 Zrotation Xrotation Yrotation
    JOINT lThigh
    {
      OFFSET 0 -1.70687 -2.19456
      CHANNELS 3 Zrotation Xrotation Yrotation
      JOINT lShin
      {
        OFFSET 0 -36.8199 0.73152
        CHANNELS 3 Zrotation Xrotation Yrotation
        JOINT lFoot
        {
          OFFSET -0.73152 -45.1104 -5.12064
          CHANNELS 3 Zrotation Xrotation Yrotation
          End Site
          {
            OFFSET 1.1221 -3.69964 12.103
          }
        }
      }
    }
  }
}
MOTION
Frames:	4
Frame Time:	0.00833333
46.5227 78.1611 -44.2626 3.1663 -5.1492 6.1912 -9.66321 -0.0114029 5.80379 -1.60934 -3.45567 1.35713 -3.26574 4.63304 -1.00294 8.54879 -13.2007 -0.342327 -0.0 0.0 0.0 -0.0 0.0 0.0 -1.14933e-13 -9.72791e-14 -1.71486e-13 89.8414 17.7526 -13.8431 -16.2778 -8.95438 30.2508 -0.06975 -7.16639 -1.01072 1.61422e-09 -2.31513e-09 -4.88658e-11 2.79181e-09 -4.00574e-09 -8.20768e-11 1.61422e-09 -2.31513e-09 -4.88722e-11 7.73091 5.47488 0.417314 1.61422e-09 -2.31513e-09 -4.88664e-11 2.90554 0.965183 0.102902 1.61423e-09 -2.31513e-09 -4.88643e-11 10.2786 0.731801 0.0259123 1.61422e-09 -2.31513e-09 -4.88581e-11 2.22167 -0.733487 -0.20892 -1.14907e-13 -9.72812e-14 -1.71734e-13 -80.2858 -7.63047 9.6787 6.11411 -2.0915 -10.6954 0.308097 15.7898 -2.27444 1.53465e-09 1.21987e-09 -8.3331e-10 2.64011e-09 2.11449e-09 -1.45722e-09 1.53464e-09 1.21987e-09 -8.33309e-10 -7.73091 5.47488 -0.417314 1.53464e-09 1.21987e-09 -8.33315e-10 -2.90554 0.965183 -0.102902 1.53464e-09 1.21987e-09 -8.33318e-10 -10.2786 0.731801 -0.0259123 1.53465e-09 1.21987e-09 -8.33327e-10 -2.22167 -0.733487 0.20892 -2.03217e-16 0.0 -3.88251e-19 -4.2363 -35.0939 1.08255 -2.98864 74.3508 3.21008 -0.0308527 7.38501 -0.0476531 2.03217e-16 0.0 3.88251e-19 -10.7533 -29.9528 -0.179651 0.224655 38.3344 -0.137519 0.361481 -14.5911 -0.395385
46.6647 78.1871 -42.7341 3.395 -4.9342 6.1068 -9.56804 0.0878978 5.4258 -1.54207 -3.50908 1.25863 -3.31187 4.52929 -0.920715 8.4422 -12.8388 -0.203477 -0.0 0.0 0.0 -0.0 0.0 0.0 -8.37954e-14 -1.22073e-13 -2.54359e-13 89.612 15.778 -14.4249 -15.2623 -8.02686 28.1069 -0.0396814 -4.92918 -0.692917 1.80976e-09 -2.87721e-09 -1.67615e-10 3.13176e-09 -4.97978e-09 -2.90682e-10 1.80976e-09 -2.87721e-09 -1.67624e-10 7.73091 5.47488 0.417314 1.80976e-09 -2.87721e-09 -1.67618e-10 2.90554 0.965183 0.102902 1.80976e-09 -2.87721e-09 -1.67613e-10 10.2786 0.731801 0.0259123 1.80975e-09 -2.87721e-09 -1.67606e-10 2.22167 -0.733487 -0.20892 -8.37514e-14 -1.22077e-13 -2.54608e-13 -81.1275 -4.32184 7.895 6.52503 -2.27822 -11.4345 0.192277 12.511 -1.78431 1.77811e-09 2.13472e-09 -9.4674e-10 3.06161e-09 3.69714e-09 -1.65189e-09 1.7781e-09 2.13472e-09 -9.46736e-10 -7.73091 5.47488 -0.417314 1.77811e-09 2.13472e-09 -9.46748e-10 -2.90554 0.965183 -0.102902 1.7781e-09 2.13472e-09 -9.46747e-10 -10.2786 0.731801 -0.0259123 1.77812e-09 2.13473e-09 -9.46755e-10 -2.22167 -0.733487 0.20892 -2.03217e-16 0.0 -3.88251e-19 -4.50121 -36.4741 0.40444 -2.86593 73.9493 3.14182 0.0205895 5.66979 0.998073 2.03217e-16 0.0 3.88251e-19 -11.0576 -28.5284 -0.247869 0.194746 38.0334 -0.240167 0.330521 -15.1627 -0.698467
46.8021 78.2152 -41.188 3.6656 -4.7954 5.9683 -9.49374 0.179728 5.08287 -1.44615 -3.56996 1.17316 -3.2973 4.48579 -0.869363 8.22469 -12.6071 -0.143974 -0.0 0.0 0.0 -0.0 0.0 0.0 -5.91127e-14 -1.33581e-13 -2.85306e-13 89.2148 13.4406 -15.0079 -14.2313 -7.14259 26.0207 -0.00663456 -2.32504 -0.326944 1.79107e-09 -3.00891e-09 -2.22572e-10 3.10048e-09 -5.20844e-09 -3.87552e-10 1.79108e-09 -3.00891e-09 -2.22582e-10 7.73091 5.47488 0.417314 1.79107e-09 -3.00891e-09 -2.22575e-10 2.90554 0.965183 0.102902 1.79108e-09 -3.00891e-09 -2.22569e-10 10.2786 0.731801 0.0259123 1.79107e-09 -3.00891e-09 -2.22562e-10 2.22167 -0.733487 -0.20892 -5.90687e-14 -1.33585e-13 -2.85554e-13 -81.7159 -0.968804 6.19196 7.00525 -2.51093 -12.2931 0.106766 9.2785 -1.31564 1.8016e-09 2.5057e-09 -9.42456e-10 3.10352e-09 4.33851e-09 -1.6425e-09 1.80158e-09 2.5057e-09 -9.42449e-10 -7.73091 5.47488 -0.417314 1.80159e-09 2.5057e-09 -9.42465e-10 -2.90554 0.965183 -0.102902 1.80158e-09 2.5057e-09 -9.42462e-10 -10.2786 0.731801 -0.0259123 1.8016e-09 2.50571e-09 -9.42468e-10 -2.22167 -0.733487 0.20892 -2.03217e-16 0.0 -3.88251e-19 -4.73856 -37.8072 -0.203666 -2.7049 73.3278 3.03579 0.0983911 4.0105 1.73599 2.03217e-16 0.0 3.88251e-19 -11.33 -27.0912 -0.256848 0.165446 37.7139 -0.347208 0.322575 -15.8218 -0.892357
46.8858 78.3514 -39.5856 3.6926 -4.5992 5.7896 -9.46338 0.265003 4.79574 -1.31836 -3.63575 1.10722 -3.17586 4.51758 -0.869335 7.81294 -12.5439 -0.220381 -0.0 0.0 0.0 -0.0 0.0 0.0 -4.408e-14 -1.26769e-13 -2.35815e-13 88.6167 10.7174 -15.5656 -13.1823 -6.31353 23.9382 0.00483794 0.649824 0.0934125 1.42365e-09 -2.44787e-09 -1.63856e-10 2.46525e-09 -4.23723e-09 -2.85864e-10 1.42366e-09 -2.44787e-09 -1.63865e-10 7.73091 5.47488 0.417314 1.42365e-09 -2.44787e-09 -1.63858e-10 2.90554 0.965183 0.102902 1.42366e-09 -2.44787e-09 -1.63853e-10 10.2786 0.731801 0.0259123 1.42365e-09 -2.44787e-09 -1.63846e-10 2.22167 -0.733487 -0.20892 -4.40676e-14 -1.26771e-13 -2.36059e-13 -82.0465 2.50325 4.53394 7.55911 -2.78866 -13.2933 0.0417909 6.04854 -0.854987 1.48902e-09 2.03123e-09 -7.5216e-10 2.56575e-09 3.51657e-09 -1.31023e-09 1.48901e-09 2.03123e-09 -7.52154e-10 -7.73091 5.47488 -0.417314 1.48901e-09 2.03123e-09 -7.5217e-10 -2.90554 0.965183 -0.102902 1.48901e-09 2.03123e-09 -7.52166e-10 -10.2786 0.731801 -0.0259123 1.48903e-09 2.03124e-09 -7.52172e-10 -2.22167 -0.733487 0.20892 -2.03217e-16 0.0 -3.88251e-19 -4.94476 -39.1399 -0.750668 -2.51662 72.5147 2.90406 0.158042 2.38304 2.04998 2.03217e-16 0.0 3.88251e-19 -11.6249 -25.6533 -0.250149 0.136339 37.4142 -0.462765 0.376389 -16.6753 -0.85738
